<?xml version="1.0" encoding="utf-8"?><svg xmlns="http://www.w3.org/2000/svg" xmlns:xlink="http://www.w3.org/1999/xlink" width="1490" height="286" preserveAspectRatio="xMidYMid" viewBox="0 0 1490 286" style="z-index:1;display:block;animation-play-state:paused" ><g transform="translate(745,143) scale(1,-1) translate(-745,-143)" style="animation-play-state:paused" ><linearGradient id="lg-0.0335832425225191" x1="0" x2="1" y1="0" y2="0" style="animation-play-state:paused" ><stop stop-color="#fbbe2b" offset="0" style="animation-play-state:paused" ></stop>

  
<stop stop-color="#ff612f" offset="1" style="animation-play-state:paused" ></stop></linearGradient>
<path d="M0 0L0 109.73340606689453Q186.25 118.51524353027344 372.5 75.93643188476562T745 113.95633697509766T1117.5 63.91489791870117T1490 61.602298736572266L1490 0z" fill="url(#lg-0.0335832425225191)" opacity="0.4" style="opacity:0.4;animation-play-state:paused" ></path>
<path d="M0 0L0 192.58285522460938Q186.25 175.899169921875 372.5 141.089111328125T745 126.50533294677734T1117.5 129.9341583251953T1490 160.0889892578125L1490 0z" fill="url(#lg-0.0335832425225191)" opacity="0.4" style="opacity:0.4;animation-play-state:paused" ></path>
<path d="M0 0L0 158.12892150878906Q186.25 205.064208984375 372.5 169.93943786621094T745 110.02862548828125T1117.5 154.13638305664062T1490 166.6747589111328L1490 0z" fill="url(#lg-0.0335832425225191)" opacity="0.4" style="opacity:0.4;animation-play-state:paused" ></path>
<path d="M0 0L0 155.16111755371094Q186.25 166.61180114746094 372.5 129.09947204589844T745 109.88684844970703T1117.5 125.13883209228516T1490 138.34295654296875L1490 0z" fill="url(#lg-0.0335832425225191)" opacity="0.4" style="opacity:0.4;animation-play-state:paused" ></path>
<path d="M0 0L0 191.06239318847656Q186.25 162.56353759765625 372.5 134.82057189941406T745 162.92518615722656T1117.5 128.35911560058594T1490 63.48606491088867L1490 0z" fill="url(#lg-0.0335832425225191)" opacity="0.4" style="opacity:0.4;animation-play-state:paused" ></path></g></svg>